# xmcd CD database file
#
# Track frame offsets:
#	187
#	13805
#	29615
#	44595
#	58892
#	72355
#	88320
#	101582
#	114345
#	131357
#
# Disc length: 1947 seconds
#
# Revision: 2
# Processed by: cddbd v1.5.2PL0 Copyright (c) Steve Scherf et al.
# Submitted via: CDex 1.70beta2
#
DISCID=8f07990a
DTITLE=Dale Daniel - Luck Of Our Own
DYEAR=1900
DGENRE=Country
TTITLE0=Middle Of A Miracle
TTITLE1=Luck Of Our Own
TTITLE2=Border Line
TTITLE3=Where Do You Go When You Dream
TTITLE4=Coming Back To Haunt Me
TTITLE5=You Gave Her Your Name
TTITLE6=Don't Let The Same Dog Bite You Twice
TTITLE7=The Dust Ain't Settled Yet
TTITLE8=One More Bend
TTITLE9=Daddy's Little Girl
EXTD=
EXTT0=
EXTT1=
EXTT2=
EXTT3=
EXTT4=
EXTT5=
EXTT6=
EXTT7=
EXTT8=
EXTT9=
PLAYORDER=
